# xmcd
#
# Track frame offsets:
#	150
#	13709
#	28750
#	44268
#	56765
#	71709
#	85007
#	109434
#	131667
#	144367
#	161386
#	184058
#	199137
#	216038
#	233373
#	257980
#	278246
#	292362
#	306813
#	327096
#
# Disc length: 4567 seconds
#
# Revision: 0
# Processed by: cddbd v1.5.2PL0 Copyright (c) Steve Scherf et al.
# Submitted via: dBpowerAMP V4.0
#
DISCID=2c11d514
DTITLE=Varios - Andino
DYEAR=2011
DGENRE=National Folk
TTITLE0=Aline
TTITLE1=Amor Eterno
TTITLE2=Besame Mucho
TTITLE3=Flauta de Pan
TTITLE4=La Mision
TTITLE5=Takinari de Jaiña
TTITLE6=Niños Huerfanos
TTITLE7=El Reencuento
TTITLE8=Y la Amo
TTITLE9=Yesterday
TTITLE10=Alfonsina y El Mar
TTITLE11=Polvo en el Viento
TTITLE12=Los Sonidos del Silencio
TTITLE13=Matrimonio de Amor
TTITLE14=No Llores por Mi Argentina
TTITLE15=Pastor Solitario
TTITLE16=Playas de Ensueño
TTITLE17=Se Busca
TTITLE18=Asi fue
TTITLE19=Titicaca
EXTD=Andino
EXTT0=
EXTT1=
EXTT2=
EXTT3=
EXTT4=
EXTT5=
EXTT6=
EXTT7=
EXTT8=
EXTT9=
EXTT10=
EXTT11=
EXTT12=
EXTT13=
EXTT14=
EXTT15=
EXTT16=
EXTT17=
EXTT18=
EXTT19=
PLAYORDER=
